<svg width="206" height="112" viewBox="0 0 206 112" fill="none" xmlns="http://www.w3.org/2000/svg">
<path d="M2.70703 72.875V70.3438H37.0195V72.875H2.70703ZM2.70703 77.9375V75.4062H37.0195V77.9375H2.70703ZM2.70703 83V80.4688H37.0195V83H2.70703ZM6.60938 68.9375H3.65625C5.29688 66.7109 6.91406 64.5312 8.50781 62.3984C10.1016 60.2656 11.4258 58.4961 12.4805 57.0898C13.5586 55.6602 14.6016 54.2656 15.6094 52.9062C16.6172 51.5469 17.4258 50.457 18.0352 49.6367C18.668 48.8164 19.2656 48.0195 19.8281 47.2461C20.3906 46.4727 20.8125 45.875 21.0938 45.4531C21.375 45.0078 21.6211 44.5859 21.832 44.1875C22.0664 43.7891 22.2188 43.4727 22.2891 43.2383C22.3594 42.9805 22.3945 42.7344 22.3945 42.5C22.3945 41.4219 21.9492 40.7305 21.0586 40.4258C20.168 40.1211 18.5977 39.9688 16.3477 39.9688C12.6914 39.9688 9.03516 40.4492 5.37891 41.4102L4.85156 38.9844C5.4375 38.7266 6.91406 38.3984 9.28125 38C11.6719 37.5781 13.9688 37.3672 16.1719 37.3672C17.5078 37.3672 18.668 37.4492 19.6523 37.6133C20.6367 37.7539 21.5273 38.0117 22.3242 38.3867C23.1445 38.7383 23.7656 39.2656 24.1875 39.9688C24.6094 40.6484 24.8203 41.4922 24.8203 42.5C24.8203 43.5078 24.3047 44.7969 23.2734 46.3672C22.2422 47.9375 19.5938 51.5703 15.3281 57.2656C11.8594 61.8828 8.95312 65.7734 6.60938 68.9375ZM12.3398 68.9375H9.38672C18.1289 57.1719 22.9805 50.5977 23.9414 49.2148C25.9102 46.4023 27.0117 44.3984 27.2461 43.2031C27.3164 42.875 27.3516 42.5234 27.3516 42.1484C27.3516 37.2969 23.6719 34.8711 16.3125 34.8711C14.0625 34.8711 11.7773 35.0703 9.45703 35.4688C7.13672 35.8672 5.4375 36.2656 4.35938 36.6641L3.86719 34.2383C7.875 32.9961 12.0352 32.375 16.3477 32.375C17.8477 32.375 19.2305 32.4805 20.4961 32.6914C21.7852 32.8789 23.0156 33.207 24.1875 33.6758C25.3594 34.1445 26.3555 34.7539 27.1758 35.5039C27.9961 36.2305 28.6406 37.1562 29.1094 38.2812C29.6016 39.4062 29.8477 40.6953 29.8477 42.1484C29.8477 43.6484 29.1094 45.5352 27.6328 47.8086C26.1562 50.082 21.7383 56.1992 14.3789 66.1602C13.4883 67.3555 12.8086 68.2812 12.3398 68.9375ZM18.2109 68.9375H15.2578C23.25 58.0156 28.1016 51.2188 29.8125 48.5469C31.5234 45.8516 32.3789 43.6016 32.3789 41.7969C32.3789 39.5938 31.9453 37.6953 31.0781 36.1016C30.2344 34.5078 29.0391 33.2656 27.4922 32.375C25.9688 31.4844 24.2812 30.8398 22.4297 30.4414C20.6016 30.043 18.5625 29.8438 16.3125 29.8438C11.9766 29.8438 7.65234 30.5 3.33984 31.8125L2.8125 29.2461C7.42969 27.8867 11.8945 27.207 16.207 27.207C18.3164 27.207 20.2734 27.3594 22.0781 27.6641C23.8828 27.9688 25.582 28.4844 27.1758 29.2109C28.793 29.9141 30.1523 30.8164 31.2539 31.918C32.3789 33.0195 33.2695 34.4141 33.9258 36.1016C34.582 37.7656 34.9102 39.6641 34.9102 41.7969C34.9102 43.3203 34.5469 44.8789 33.8203 46.4727C33.1172 48.043 31.6406 50.4453 29.3906 53.6797C27.1641 56.9141 23.4375 62 18.2109 68.9375ZM24.293 68.9375H21.3398C26.2852 62.3984 29.8594 57.4883 32.0625 54.207C34.2891 50.9023 35.7422 48.4062 36.4219 46.7188C37.1016 45.0078 37.4414 43.25 37.4414 41.4453C37.4414 39.1484 37.0898 37.0742 36.3867 35.2227C35.707 33.3477 34.7344 31.7773 33.4688 30.5117C32.2266 29.2227 30.7266 28.1445 28.9688 27.2773C27.2109 26.4102 25.2773 25.7773 23.168 25.3789C21.082 24.9805 18.8203 24.7812 16.3828 24.7812C11.8828 24.7812 7.19531 25.4844 2.32031 26.8906L1.79297 24.3945C6.73828 22.9648 11.5781 22.25 16.3125 22.25C19.8281 22.25 23.0039 22.6367 25.8398 23.4102C28.6992 24.1602 31.1836 25.2969 33.293 26.8203C35.4258 28.3437 37.0664 30.3477 38.2148 32.832C39.3867 35.3164 39.9727 38.1875 39.9727 41.4453C39.9727 43.5078 39.6328 45.4531 38.9531 47.2812C38.2969 49.1094 36.8438 51.6992 34.5938 55.0508C32.3672 58.4023 28.9336 63.0312 24.293 68.9375ZM47.918 70.4141C45.4805 65.5859 44.2617 60.0781 44.2617 53.8906C44.2617 47.7031 45.4805 42.1953 47.918 37.3672C50.3555 32.5391 53.707 28.8125 57.9727 26.1875C62.2383 23.5625 67.043 22.25 72.3867 22.25C77.7305 22.25 82.5352 23.5625 86.8008 26.1875C91.0664 28.8125 94.418 32.5391 96.8555 37.3672C99.293 42.1953 100.512 47.7031 100.512 53.8906C100.512 60.0781 99.293 65.5859 96.8555 70.4141C94.418 75.2422 91.0664 78.9688 86.8008 81.5938C82.5352 84.2188 77.7305 85.5312 72.3867 85.5312C67.043 85.5312 62.2383 84.2188 57.9727 81.5938C53.707 78.9688 50.3555 75.2422 47.918 70.4141ZM81.8086 41.7969C84.1523 44.6797 85.3242 48.7109 85.3242 53.8906C85.3242 59.0703 84.1523 63.1133 81.8086 66.0195C79.4883 68.9023 76.3477 70.3438 72.3867 70.3438C68.4258 70.3438 65.2734 68.9023 62.9297 66.0195C60.6094 63.1133 59.4492 59.0703 59.4492 53.8906C59.4492 48.7109 60.6094 44.6797 62.9297 41.7969C65.2734 38.8906 68.4258 37.4375 72.3867 37.4375C76.3477 37.4375 79.4883 38.8906 81.8086 41.7969ZM85.3945 38.2109C88.7227 42.1016 90.3867 47.3281 90.3867 53.8906C90.3867 60.4531 88.7227 65.6797 85.3945 69.5703C82.0898 73.4609 77.7539 75.4062 72.3867 75.4062C67.0195 75.4062 62.6719 73.4609 59.3438 69.5703C56.0391 65.6797 54.3867 60.4531 54.3867 53.8906C54.3867 47.3281 56.0391 42.1016 59.3438 38.2109C62.6719 34.3203 67.0195 32.375 72.3867 32.375C77.7539 32.375 82.0898 34.3203 85.3945 38.2109ZM92.4609 39.9336C94.4531 43.9648 95.4492 48.6172 95.4492 53.8906C95.4492 59.1641 94.4531 63.8281 92.4609 67.8828C90.4922 71.9141 87.7617 75.0195 84.2695 77.1992C80.7773 79.3789 76.8164 80.4688 72.3867 80.4688C67.957 80.4688 63.9961 79.3789 60.5039 77.1992C57.0117 75.0195 54.2695 71.9141 52.2773 67.8828C50.3086 63.8281 49.3242 59.1641 49.3242 53.8906C49.3242 48.6172 50.3086 43.9648 52.2773 39.9336C54.2695 35.8789 57.0117 32.7617 60.5039 30.582C63.9961 28.4023 67.957 27.3125 72.3867 27.3125C76.8164 27.3125 80.7773 28.4023 84.2695 30.582C87.7617 32.7617 90.4922 35.8789 92.4609 39.9336ZM64.7227 43.5547C62.8945 45.9453 61.9805 49.3906 61.9805 53.8906C61.9805 58.3906 62.8945 61.8359 64.7227 64.2266C66.5742 66.6172 69.1289 67.8125 72.3867 67.8125C75.6445 67.8125 78.1875 66.6172 80.0156 64.2266C81.8672 61.8359 82.793 58.3906 82.793 53.8906C82.793 49.3906 81.8672 45.9453 80.0156 43.5547C78.1875 41.1641 75.6445 39.9688 72.3867 39.9688C69.1289 39.9688 66.5742 41.1641 64.7227 43.5547ZM61.1367 40.0039C58.3242 43.3789 56.918 48.0078 56.918 53.8906C56.918 59.7734 58.3242 64.4141 61.1367 67.8125C63.9727 71.1875 67.7227 72.875 72.3867 72.875C77.0508 72.875 80.7891 71.1875 83.6016 67.8125C86.4375 64.4141 87.8555 59.7734 87.8555 53.8906C87.8555 48.0078 86.4375 43.3789 83.6016 40.0039C80.7891 36.6055 77.0508 34.9062 72.3867 34.9062C67.7227 34.9062 63.9727 36.6055 61.1367 40.0039ZM57.5508 36.418C53.7539 40.8008 51.8555 46.625 51.8555 53.8906C51.8555 61.1562 53.7539 66.9805 57.5508 71.3633C61.3711 75.7461 66.3164 77.9375 72.3867 77.9375C78.457 77.9375 83.3906 75.7461 87.1875 71.3633C91.0078 66.9805 92.918 61.1562 92.918 53.8906C92.918 46.625 91.0078 40.8008 87.1875 36.418C83.3906 32.0352 78.457 29.8438 72.3867 29.8438C66.3164 29.8438 61.3711 32.0352 57.5508 36.418ZM48.7266 42.0078C47.4375 45.6406 46.793 49.6016 46.793 53.8906C46.793 58.1797 47.4375 62.1523 48.7266 65.8086C50.0156 69.4414 51.7852 72.5117 54.0352 75.0195C56.3086 77.5273 59.0156 79.4844 62.1562 80.8906C65.3203 82.2969 68.7305 83 72.3867 83C76.043 83 79.4414 82.2969 82.582 80.8906C85.7461 79.4844 88.4531 77.5273 90.7031 75.0195C92.9766 72.5117 94.7578 69.4414 96.0469 65.8086C97.3359 62.1523 97.9805 58.1797 97.9805 53.8906C97.9805 49.6016 97.3359 45.6406 96.0469 42.0078C94.7578 38.3516 92.9766 35.2695 90.7031 32.7617C88.4531 30.2539 85.7461 28.2969 82.582 26.8906C79.4414 25.4844 76.043 24.7812 72.3867 24.7812C68.7305 24.7812 65.3203 25.4844 62.1562 26.8906C59.0156 28.2969 56.3086 30.2539 54.0352 32.7617C51.7852 35.2695 50.0156 38.3516 48.7266 42.0078ZM105.434 72.875V70.3438H139.746V72.875H105.434ZM105.434 77.9375V75.4062H139.746V77.9375H105.434ZM105.434 83V80.4688H139.746V83H105.434ZM109.336 68.9375H106.383C108.023 66.7109 109.641 64.5312 111.234 62.3984C112.828 60.2656 114.152 58.4961 115.207 57.0898C116.285 55.6602 117.328 54.2656 118.336 52.9062C119.344 51.5469 120.152 50.457 120.762 49.6367C121.395 48.8164 121.992 48.0195 122.555 47.2461C123.117 46.4727 123.539 45.875 123.82 45.4531C124.102 45.0078 124.348 44.5859 124.559 44.1875C124.793 43.7891 124.945 43.4727 125.016 43.2383C125.086 42.9805 125.121 42.7344 125.121 42.5C125.121 41.4219 124.676 40.7305 123.785 40.4258C122.895 40.1211 121.324 39.9688 119.074 39.9688C115.418 39.9688 111.762 40.4492 108.105 41.4102L107.578 38.9844C108.164 38.7266 109.641 38.3984 112.008 38C114.398 37.5781 116.695 37.3672 118.898 37.3672C120.234 37.3672 121.395 37.4492 122.379 37.6133C123.363 37.7539 124.254 38.0117 125.051 38.3867C125.871 38.7383 126.492 39.2656 126.914 39.9688C127.336 40.6484 127.547 41.4922 127.547 42.5C127.547 43.5078 127.031 44.7969 126 46.3672C124.969 47.9375 122.32 51.5703 118.055 57.2656C114.586 61.8828 111.68 65.7734 109.336 68.9375ZM115.066 68.9375H112.113C120.855 57.1719 125.707 50.5977 126.668 49.2148C128.637 46.4023 129.738 44.3984 129.973 43.2031C130.043 42.875 130.078 42.5234 130.078 42.1484C130.078 37.2969 126.398 34.8711 119.039 34.8711C116.789 34.8711 114.504 35.0703 112.184 35.4688C109.863 35.8672 108.164 36.2656 107.086 36.6641L106.594 34.2383C110.602 32.9961 114.762 32.375 119.074 32.375C120.574 32.375 121.957 32.4805 123.223 32.6914C124.512 32.8789 125.742 33.207 126.914 33.6758C128.086 34.1445 129.082 34.7539 129.902 35.5039C130.723 36.2305 131.367 37.1562 131.836 38.2812C132.328 39.4062 132.574 40.6953 132.574 42.1484C132.574 43.6484 131.836 45.5352 130.359 47.8086C128.883 50.082 124.465 56.1992 117.105 66.1602C116.215 67.3555 115.535 68.2812 115.066 68.9375ZM120.938 68.9375H117.984C125.977 58.0156 130.828 51.2188 132.539 48.5469C134.25 45.8516 135.105 43.6016 135.105 41.7969C135.105 39.5938 134.672 37.6953 133.805 36.1016C132.961 34.5078 131.766 33.2656 130.219 32.375C128.695 31.4844 127.008 30.8398 125.156 30.4414C123.328 30.043 121.289 29.8438 119.039 29.8438C114.703 29.8438 110.379 30.5 106.066 31.8125L105.539 29.2461C110.156 27.8867 114.621 27.207 118.934 27.207C121.043 27.207 123 27.3594 124.805 27.6641C126.609 27.9688 128.309 28.4844 129.902 29.2109C131.52 29.9141 132.879 30.8164 133.98 31.918C135.105 33.0195 135.996 34.4141 136.652 36.1016C137.309 37.7656 137.637 39.6641 137.637 41.7969C137.637 43.3203 137.273 44.8789 136.547 46.4727C135.844 48.043 134.367 50.4453 132.117 53.6797C129.891 56.9141 126.164 62 120.938 68.9375ZM127.02 68.9375H124.066C129.012 62.3984 132.586 57.4883 134.789 54.207C137.016 50.9023 138.469 48.4062 139.148 46.7188C139.828 45.0078 140.168 43.25 140.168 41.4453C140.168 39.1484 139.816 37.0742 139.113 35.2227C138.434 33.3477 137.461 31.7773 136.195 30.5117C134.953 29.2227 133.453 28.1445 131.695 27.2773C129.938 26.4102 128.004 25.7773 125.895 25.3789C123.809 24.9805 121.547 24.7812 119.109 24.7812C114.609 24.7812 109.922 25.4844 105.047 26.8906L104.52 24.3945C109.465 22.9648 114.305 22.25 119.039 22.25C122.555 22.25 125.73 22.6367 128.566 23.4102C131.426 24.1602 133.91 25.2969 136.02 26.8203C138.152 28.3437 139.793 30.3477 140.941 32.832C142.113 35.3164 142.699 38.1875 142.699 41.4453C142.699 43.5078 142.359 45.4531 141.68 47.2812C141.023 49.1094 139.57 51.6992 137.32 55.0508C135.094 58.4023 131.66 63.0312 127.02 68.9375ZM150.645 70.4141C148.207 65.5859 146.988 60.0781 146.988 53.8906C146.988 47.7031 148.207 42.1953 150.645 37.3672C153.082 32.5391 156.434 28.8125 160.699 26.1875C164.965 23.5625 169.77 22.25 175.113 22.25C180.457 22.25 185.262 23.5625 189.527 26.1875C193.793 28.8125 197.145 32.5391 199.582 37.3672C202.02 42.1953 203.238 47.7031 203.238 53.8906C203.238 60.0781 202.02 65.5859 199.582 70.4141C197.145 75.2422 193.793 78.9688 189.527 81.5938C185.262 84.2188 180.457 85.5312 175.113 85.5312C169.77 85.5312 164.965 84.2188 160.699 81.5938C156.434 78.9688 153.082 75.2422 150.645 70.4141ZM184.535 41.7969C186.879 44.6797 188.051 48.7109 188.051 53.8906C188.051 59.0703 186.879 63.1133 184.535 66.0195C182.215 68.9023 179.074 70.3438 175.113 70.3438C171.152 70.3438 168 68.9023 165.656 66.0195C163.336 63.1133 162.176 59.0703 162.176 53.8906C162.176 48.7109 163.336 44.6797 165.656 41.7969C168 38.8906 171.152 37.4375 175.113 37.4375C179.074 37.4375 182.215 38.8906 184.535 41.7969ZM188.121 38.2109C191.449 42.1016 193.113 47.3281 193.113 53.8906C193.113 60.4531 191.449 65.6797 188.121 69.5703C184.816 73.4609 180.48 75.4062 175.113 75.4062C169.746 75.4062 165.398 73.4609 162.07 69.5703C158.766 65.6797 157.113 60.4531 157.113 53.8906C157.113 47.3281 158.766 42.1016 162.07 38.2109C165.398 34.3203 169.746 32.375 175.113 32.375C180.48 32.375 184.816 34.3203 188.121 38.2109ZM195.188 39.9336C197.18 43.9648 198.176 48.6172 198.176 53.8906C198.176 59.1641 197.18 63.8281 195.188 67.8828C193.219 71.9141 190.488 75.0195 186.996 77.1992C183.504 79.3789 179.543 80.4688 175.113 80.4688C170.684 80.4688 166.723 79.3789 163.23 77.1992C159.738 75.0195 156.996 71.9141 155.004 67.8828C153.035 63.8281 152.051 59.1641 152.051 53.8906C152.051 48.6172 153.035 43.9648 155.004 39.9336C156.996 35.8789 159.738 32.7617 163.23 30.582C166.723 28.4023 170.684 27.3125 175.113 27.3125C179.543 27.3125 183.504 28.4023 186.996 30.582C190.488 32.7617 193.219 35.8789 195.188 39.9336ZM167.449 43.5547C165.621 45.9453 164.707 49.3906 164.707 53.8906C164.707 58.3906 165.621 61.8359 167.449 64.2266C169.301 66.6172 171.855 67.8125 175.113 67.8125C178.371 67.8125 180.914 66.6172 182.742 64.2266C184.594 61.8359 185.52 58.3906 185.52 53.8906C185.52 49.3906 184.594 45.9453 182.742 43.5547C180.914 41.1641 178.371 39.9688 175.113 39.9688C171.855 39.9688 169.301 41.1641 167.449 43.5547ZM163.863 40.0039C161.051 43.3789 159.645 48.0078 159.645 53.8906C159.645 59.7734 161.051 64.4141 163.863 67.8125C166.699 71.1875 170.449 72.875 175.113 72.875C179.777 72.875 183.516 71.1875 186.328 67.8125C189.164 64.4141 190.582 59.7734 190.582 53.8906C190.582 48.0078 189.164 43.3789 186.328 40.0039C183.516 36.6055 179.777 34.9062 175.113 34.9062C170.449 34.9062 166.699 36.6055 163.863 40.0039ZM160.277 36.418C156.48 40.8008 154.582 46.625 154.582 53.8906C154.582 61.1562 156.48 66.9805 160.277 71.3633C164.098 75.7461 169.043 77.9375 175.113 77.9375C181.184 77.9375 186.117 75.7461 189.914 71.3633C193.734 66.9805 195.645 61.1562 195.645 53.8906C195.645 46.625 193.734 40.8008 189.914 36.418C186.117 32.0352 181.184 29.8438 175.113 29.8438C169.043 29.8438 164.098 32.0352 160.277 36.418ZM151.453 42.0078C150.164 45.6406 149.52 49.6016 149.52 53.8906C149.52 58.1797 150.164 62.1523 151.453 65.8086C152.742 69.4414 154.512 72.5117 156.762 75.0195C159.035 77.5273 161.742 79.4844 164.883 80.8906C168.047 82.2969 171.457 83 175.113 83C178.77 83 182.168 82.2969 185.309 80.8906C188.473 79.4844 191.18 77.5273 193.43 75.0195C195.703 72.5117 197.484 69.4414 198.773 65.8086C200.062 62.1523 200.707 58.1797 200.707 53.8906C200.707 49.6016 200.062 45.6406 198.773 42.0078C197.484 38.3516 195.703 35.2695 193.43 32.7617C191.18 30.2539 188.473 28.2969 185.309 26.8906C182.168 25.4844 178.77 24.7812 175.113 24.7812C171.457 24.7812 168.047 25.4844 164.883 26.8906C161.742 28.2969 159.035 30.2539 156.762 32.7617C154.512 35.2695 152.742 38.3516 151.453 42.0078Z" fill="url(#paint0_radial)"/>
<defs>
<radialGradient id="paint0_radial" cx="0" cy="0" r="1" gradientUnits="userSpaceOnUse" gradientTransform="translate(5.99999 28.5) rotate(17.0927) scale(209.242 384.856)">
<stop stop-color="#FF006B"/>
<stop offset="1" stop-color="#FFB800"/>
</radialGradient>
</defs>
</svg>
