<svg width="62" height="24" viewBox="0 0 62 24" fill="none" xmlns="http://www.w3.org/2000/svg">
<circle cx="12" cy="12" r="4" transform="rotate(-90 12 12)" fill="#110057"/>
<path d="M21 24L21 0L50 -1.26763e-06C56.6274 -1.55732e-06 62 5.37258 62 12V12C62 18.6274 56.6274 24 50 24L21 24Z" fill="url(#paint0_linear)"/>
<mask id="mask0" mask-type="alpha" maskUnits="userSpaceOnUse" x="0" y="0" width="24" height="24">
<path d="M0 24L-1.04907e-06 0L21.7503 -9.50734e-07C24.8538 9.37244 24.6442 14.6275 21.7503 24L0 24Z" fill="#C4C4C4"/>
</mask>
<g mask="url(#mask0)">
<ellipse cx="21.5" cy="12" rx="12" ry="10.5" transform="rotate(-90 21.5 12)" fill="#110057"/>
</g>
<defs>
<linearGradient id="paint0_linear" x1="21" y1="12" x2="62" y2="12" gradientUnits="userSpaceOnUse">
<stop stop-color="#69009B"/>
<stop offset="1" stop-color="#020069"/>
</linearGradient>
</defs>
</svg>
