<svg width="771" height="227" viewBox="0 0 771 227" fill="none" xmlns="http://www.w3.org/2000/svg">
<path d="M356.335 0C237.477 155.568 154.784 208.66 0 226.563H770.745C602.993 207.491 516.025 166.058 382.146 0H356.335Z" fill="#332E56"/>
<path d="M356.335 0C237.477 155.568 154.784 208.66 0 226.563H770.745C602.993 207.491 516.025 166.058 382.146 0H356.335Z" fill="url(#paint0_linear)"/>
<mask id="mask0" mask-type="alpha" maskUnits="userSpaceOnUse" x="0" y="0" width="771" height="227">
<path d="M356.335 0C237.477 155.568 154.784 208.66 0 226.563H770.745C602.993 207.491 516.025 166.058 382.146 0H356.335Z" fill="#332E56"/>
<path d="M356.335 0C237.477 155.568 154.784 208.66 0 226.563H770.745C602.993 207.491 516.025 166.058 382.146 0H356.335Z" fill="url(#paint1_linear)"/>
</mask>
<g mask="url(#mask0)">
<rect x="295.034" y="-13.264" width="137.659" height="46.6032" fill="white"/>
</g>
<defs>
<linearGradient id="paint0_linear" x1="385.373" y1="0" x2="385.373" y2="226.563" gradientUnits="userSpaceOnUse">
<stop offset="0.385417" stop-color="#00474B" stop-opacity="0"/>
<stop offset="1" stop-color="#00474B"/>
</linearGradient>
<linearGradient id="paint1_linear" x1="385.373" y1="0" x2="385.373" y2="226.563" gradientUnits="userSpaceOnUse">
<stop offset="0.385417" stop-color="#00474B" stop-opacity="0"/>
<stop offset="1" stop-color="#00474B"/>
</linearGradient>
</defs>
</svg>
