<svg width="47" height="66" viewBox="0 0 47 66" fill="none" xmlns="http://www.w3.org/2000/svg">
<path d="M6.88384 63.6875C-3.80497 63.6875 2.43017 58.9369 6.88384 56.5616C11.4951 55.6022 14.0661 58.4815 15.3458 59.6792C16.9788 61.0153 17.5727 63.6875 6.88384 63.6875Z" fill="#BBA285"/>
<path d="M4.98479 32.0664C1.2734 34.4417 -3.92255 39.0141 4.98479 38.3015C13.8921 37.589 8.69619 33.8479 4.98479 32.0664Z" fill="#BBA285"/>
<path d="M36.1372 3.33962C23.1721 -2.26993 11.2275 3.19355 6.87585 5.53087C6.28007 6.84459 5.11559 10.5377 4.02613 15.5C5.97564 25.721 1.99999 45 2.81554 49C3.63109 53 4.96131 55.8255 6.87584 58.5587C13.0236 67.3355 36.1371 61.2099 40.1887 58.5587C46.2247 54.6091 52.3434 10.3516 36.1372 3.33962Z" fill="#97CDFF"/>
<circle cx="11.7829" cy="3.56294" r="3.56294" fill="#97CDFF"/>
<circle cx="39.3956" cy="5.34443" r="3.56294" fill="#97CDFF"/>
<path d="M31.0457 65.216C20.3569 65.216 26.5921 60.4654 31.0457 58.0901C35.657 57.1307 38.228 60.01 39.5077 61.2077C41.1407 62.5438 41.7345 65.216 31.0457 65.216Z" fill="#BBA285"/>
<path d="M37.1688 38.3015C47.8576 41.1519 42.2163 35.3324 38.0595 32.0664C35.361 34.846 36.0079 36.0825 37.1529 38.2711L37.1688 38.3015Z" fill="#BBA285"/>
<circle cx="10.1107" cy="13.361" r="8.01661" fill="white"/>
<circle cx="29.7068" cy="14.361" r="8.01661" fill="white"/>
<ellipse cx="6.99311" cy="12.361" rx="1.3361" ry="1.78147" transform="rotate(9.577 6.99311 12.361)" fill="#585858"/>
<ellipse cx="26.5893" cy="13.361" rx="1.3361" ry="1.78147" transform="rotate(6.93354 26.5893 13.361)" fill="#585858"/>
<ellipse cx="18.368" cy="20.8907" rx="1.3361" ry="0.890734" fill="#424242"/>
<path d="M14.8086 26.6307C14.4523 26.2744 14.9571 24.4039 15.254 23.5131L20.5984 23.9585C20.5984 24.8492 20.5093 26.7198 20.153 27.0761C19.7076 27.5214 15.254 27.0761 14.8086 26.6307Z" fill="white"/>
<path d="M13.0236 22.6722C12.6673 23.7411 16.4381 24.0083 18.368 24.0083C23.7124 24.0083 23.267 23.3021 23.267 22.6722C23.267 21.7815 20.1494 21.9299 18.368 21.7815C16.735 21.633 13.3799 21.6034 13.0236 22.6722Z" fill="#BBA285"/>
</svg>
