<svg width="55" height="28" viewBox="0 0 55 28" fill="none" xmlns="http://www.w3.org/2000/svg">
<path d="M0 9.84354C4.27753 6.19273 15.2481 1.0816 24.9103 9.84354C25.9168 5.14964 33.0628 -3.14292 47.556 1.23805C62.0493 5.61902 52.0852 6.71425 45.2915 6.71424C52.5884 9.21747 62.8042 13.6608 45.2915 11.4082C51.5819 14.2766 60.0867 19.3878 43.7817 16.8844L40.0443 19.2805L45.2915 26.2722C45.7947 27.576 46.1973 29.4014 43.7817 26.2722C41.3662 23.1429 34.9751 21.839 33.2137 21.5783C15.852 26.2722 9.81315 13.7551 9.05829 11.4082C8.45441 9.5306 3.77429 9.58276 1.50972 9.84354H0Z" fill="url(#paint0_linear)"/>
<defs>
<linearGradient id="paint0_linear" x1="0.754858" y1="9.84351" x2="58.1247" y2="10.5719" gradientUnits="userSpaceOnUse">
<stop stop-color="#C44600"/>
<stop offset="1" stop-color="#C4A400"/>
</linearGradient>
</defs>
</svg>
