<svg width="1325" height="1309" viewBox="0 0 1325 1309" fill="none" xmlns="http://www.w3.org/2000/svg">
<path d="M265.3 120L620.268 583.862L589.508 614.621L126 259.3L265.3 120Z" fill="#FFC581"/>
<path d="M126 1048.41L589.862 693.447L620.621 724.206L265.3 1187.71L126 1048.41Z" fill="#FFC581"/>
<path d="M0 557L579 634V677.5L0 754L0 557Z" fill="#FFC581"/>
<path d="M1321 754L742 677L742 633.5L1321 557L1321 754Z" fill="#FFC581"/>
<path d="M1198.71 259.3L734.853 614.268L704.094 583.508L1059.41 120L1198.71 259.3Z" fill="#FFC581"/>
<path d="M762 1.52588e-05L685 579L641.5 579L565 6.64764e-06L762 1.52588e-05Z" fill="#FFC581"/>
<path d="M1060.41 1188.71L705.447 724.853L736.206 694.094L1199.71 1049.41L1060.41 1188.71Z" fill="#FFC581"/>
<path d="M565 1309L642 730L685.5 730L762 1309L565 1309Z" fill="#FFC581"/>
</svg>
