<svg width="216" height="155" viewBox="0 0 216 155" fill="none" xmlns="http://www.w3.org/2000/svg">
<rect y="0.5354" width="216" height="154.465" rx="12" fill="#FFFFF1"/>
<line x1="38.3365" y1="1.65472" x2="38.3364" y2="155" stroke="black" stroke-opacity="0.1" stroke-width="4"/>
<line x1="182.673" y1="1.65472" x2="182.673" y2="155" stroke="black" stroke-opacity="0.1" stroke-width="4"/>
<path d="M60.0452 46.1355C60.0452 42.1853 63.2475 38.983 67.1977 38.983V38.983C71.148 38.983 74.3503 42.1853 74.3503 46.1355V65.209C74.3503 69.1592 71.148 72.3615 67.1977 72.3615V72.3615C63.2475 72.3615 60.0452 69.1592 60.0452 65.209V46.1355Z" fill="#555555"/>
<path d="M142.797 46.1355C142.797 42.1853 145.999 38.983 149.949 38.983V38.983C153.899 38.983 157.102 42.1853 157.102 46.1355V65.209C157.102 69.1592 153.899 72.3615 149.949 72.3615V72.3615C145.999 72.3615 142.797 69.1592 142.797 65.209V46.1355Z" fill="#555555"/>
<path d="M61.0452 85.0112C69.8845 116.204 141.882 117.705 155.22 85.0112C120.5 88.9999 95.8811 89.3005 61.0452 85.0112Z" fill="#FF8A00"/>
</svg>
